<svg xmlns="http://www.w3.org/2000/svg" viewBox="0 0 200 200">
  <!-- Background -->
  <rect width="200" height="200" rx="20" fill="#f8fafc"/>
  
  <!-- Box -->
  <g transform="translate(40 40) scale(0.6) rotate(15, 100, 100)">
    <!-- Bottom face -->
    <rect x="30" y="110" width="140" height="70" fill="#93c5fd" stroke="#2563eb" stroke-width="4"/>
    
    <!-- Left face -->
    <polygon points="30,110 10,80 120,80 140,110" fill="#60a5fa" stroke="#2563eb" stroke-width="4"/>
    
    <!-- Right face -->
    <polygon points="140,110 120,80 120,150 140,180" fill="#3b82f6" stroke="#2563eb" stroke-width="4"/>
    
    <!-- Top face -->
    <polygon points="30,180 10,150 120,150 140,180" fill="#93c5fd" stroke="#2563eb" stroke-width="4"/>
    
    <!-- Back face -->
    <polygon points="10,80 10,150 120,150 120,80" fill="#2563eb" stroke="#2563eb" stroke-width="4"/>
  </g>
  
  <!-- AI icon -->
  <g transform="translate(125 55)">
    <circle cx="20" cy="20" r="20" fill="#10b981"/>
    <path d="M15 15 L15 25 M25 15 L25 25 M15 20 L25 20" stroke="white" stroke-width="3" stroke-linecap="round"/>
  </g>
  
  <!-- Parcel label -->
  <rect x="50" y="95" width="40" height="25" fill="white" stroke="#4b5563" stroke-width="2" rx="2"/>
  <line x1="55" y1="102" x2="85" y2="102" stroke="#4b5563" stroke-width="2"/>
  <line x1="55" y1="108" x2="75" y2="108" stroke="#4b5563" stroke-width="2"/>
  <line x1="55" y1="114" x2="85" y2="114" stroke="#4b5563" stroke-width="2"/>
</svg>
